<?xml version="1.0" encoding="UTF-8"?>
<svg viewBox="0 0 100 100" xmlns="http://www.w3.org/2000/svg">
  <!-- Base -->
  <circle cx="50" cy="50" r="45" fill="#f0f0f0" stroke="#000066" stroke-width="1"/>
  
  <!-- Lion Capital base -->
  <rect x="35" y="70" width="30" height="5" fill="#000066"/>
  
  <!-- Three lions back to back (simplified) -->
  <g id="lions" fill="#000066">
    <!-- Center lion -->
    <path d="M50,25 C44,25 40,30 40,35 C40,40 44,45 50,45 C56,45 60,40 60,35 C60,30 56,25 50,25 Z" />
    <path d="M50,45 L50,65" stroke="#000066" stroke-width="4" />
    
    <!-- Left lion (simplified) -->
    <path d="M35,35 C32,35 30,38 30,40 C30,43 32,46 35,46 C38,46 40,43 40,40 C40,38 38,35 35,35 Z" />
    <path d="M35,46 L35,65" stroke="#000066" stroke-width="3" />
    
    <!-- Right lion (simplified) -->
    <path d="M65,35 C62,35 60,38 60,40 C60,43 62,46 65,46 C68,46 70,43 70,40 C70,38 68,35 65,35 Z" />
    <path d="M65,46 L65,65" stroke="#000066" stroke-width="3" />
  </g>
  
  <!-- Chakra (wheel) -->
  <circle cx="50" cy="35" r="8" fill="none" stroke="#000066" stroke-width="1.5"/>
  <!-- 24 spokes in the wheel (simplified to 12) -->
  <g id="spokes" stroke="#000066" stroke-width="1">
    <line x1="50" y1="27" x2="50" y2="43"/>
    <line x1="42" y1="35" x2="58" y2="35"/>
    <line x1="44" y1="29" x2="56" y2="41"/>
    <line x1="44" y1="41" x2="56" y2="29"/>
    <line x1="46" y1="28" x2="54" y2="42"/>
    <line x1="46" y1="42" x2="54" y2="28"/>
    <line x1="43" y1="31" x2="57" y2="39"/>
    <line x1="43" y1="39" x2="57" y2="31"/>
  </g>
  
  <!-- Inscription base (simplified) -->
  <path d="M25,75 C25,75 35,80 50,80 C65,80 75,75 75,75 L75,76 C75,76 65,82 50,82 C35,82 25,76 25,76 Z" fill="#000066"/>

  <!-- Satyameva Jayate text (simplified representation) -->
  <rect x="40" y="86" width="20" height="2" fill="#000066"/>
</svg>